<svg width="135" height="135" viewBox="0 0 135 135" fill="none" xmlns="http://www.w3.org/2000/svg">
<g clip-path="url(#clip0_16129_25738)">
<path d="M135 0H0V135H135V0Z" fill="white"/>
<path d="M5 5H10V10H5V5ZM10 5H15V10H10V5ZM15 5H20V10H15V5ZM20 5H25V10H20V5ZM25 5H30V10H25V5ZM30 5H35V10H30V5ZM35 5H40V10H35V5ZM50 5H55V10H50V5ZM65 5H70V10H65V5ZM70 5H75V10H70V5ZM75 5H80V10H75V5ZM80 5H85V10H80V5ZM95 5H100V10H95V5ZM100 5H105V10H100V5ZM105 5H110V10H105V5ZM110 5H115V10H110V5ZM115 5H120V10H115V5ZM120 5H125V10H120V5ZM125 5H130V10H125V5ZM5 10H10V15H5V10ZM35 10H40V15H35V10ZM45 10H50V15H45V10ZM60 10H65V15H60V10ZM65 10H70V15H65V10ZM70 10H75V15H70V10ZM75 10H80V15H75V10ZM80 10H85V15H80V10ZM85 10H90V15H85V10ZM95 10H100V15H95V10ZM125 10H130V15H125V10ZM5 15H10V20H5V15ZM15 15H20V20H15V15ZM20 15H25V20H20V15ZM25 15H30V20H25V15ZM35 15H40V20H35V15ZM45 15H50V20H45V15ZM50 15H55V20H50V15ZM55 15H60V20H55V15ZM60 15H65V20H60V15ZM65 15H70V20H65V15ZM75 15H80V20H75V15ZM95 15H100V20H95V15ZM105 15H110V20H105V15ZM110 15H115V20H110V15ZM115 15H120V20H115V15ZM125 15H130V20H125V15ZM5 20H10V25H5V20ZM15 20H20V25H15V20ZM20 20H25V25H20V20ZM25 20H30V25H25V20ZM35 20H40V25H35V20ZM50 20H55V25H50V20ZM55 20H60V25H55V20ZM60 20H65V25H60V20ZM80 20H85V25H80V20ZM85 20H90V25H85V20ZM95 20H100V25H95V20ZM105 20H110V25H105V20ZM110 20H115V25H110V20ZM115 20H120V25H115V20ZM125 20H130V25H125V20ZM5 25H10V30H5V25ZM15 25H20V30H15V25ZM20 25H25V30H20V25ZM25 25H30V30H25V25ZM35 25H40V30H35V25ZM45 25H50V30H45V25ZM75 25H80V30H75V25ZM80 25H85V30H80V25ZM85 25H90V30H85V25ZM95 25H100V30H95V25ZM105 25H110V30H105V25ZM110 25H115V30H110V25ZM115 25H120V30H115V25ZM125 25H130V30H125V25ZM5 30H10V35H5V30ZM35 30H40V35H35V30ZM45 30H50V35H45V30ZM50 30H55V35H50V30ZM60 30H65V35H60V30ZM80 30H85V35H80V30ZM95 30H100V35H95V30ZM125 30H130V35H125V30ZM5 35H10V40H5V35ZM10 35H15V40H10V35ZM15 35H20V40H15V35ZM20 35H25V40H20V35ZM25 35H30V40H25V35ZM30 35H35V40H30V35ZM35 35H40V40H35V35ZM45 35H50V40H45V35ZM55 35H60V40H55V35ZM65 35H70V40H65V35ZM75 35H80V40H75V35ZM85 35H90V40H85V35ZM95 35H100V40H95V35ZM100 35H105V40H100V35ZM105 35H110V40H105V35ZM110 35H115V40H110V35ZM115 35H120V40H115V35ZM120 35H125V40H120V35ZM125 35H130V40H125V35ZM45 40H50V45H45V40ZM50 40H55V45H50V40ZM65 40H70V45H65V40ZM75 40H80V45H75V40ZM5 45H10V50H5V45ZM10 45H15V50H10V45ZM20 45H25V50H20V45ZM35 45H40V50H35V45ZM40 45H45V50H40V45ZM55 45H60V50H55V45ZM70 45H75V50H70V45ZM75 45H80V50H75V45ZM80 45H85V50H80V45ZM85 45H90V50H85V45ZM95 45H100V50H95V45ZM100 45H105V50H100V45ZM105 45H110V50H105V45ZM115 45H120V50H115V45ZM120 45H125V50H120V45ZM5 50H10V55H5V50ZM20 50H25V55H20V50ZM30 50H35V55H30V50ZM40 50H45V55H40V50ZM55 50H60V55H55V50ZM60 50H65V55H60V50ZM70 50H75V55H70V50ZM90 50H95V55H90V50ZM95 50H100V55H95V50ZM125 50H130V55H125V50ZM10 55H15V60H10V55ZM15 55H20V60H15V55ZM25 55H30V60H25V55ZM35 55H40V60H35V55ZM40 55H45V60H40V55ZM45 55H50V60H45V55ZM50 55H55V60H50V55ZM55 55H60V60H55V55ZM70 55H75V60H70V55ZM85 55H90V60H85V55ZM90 55H95V60H90V55ZM120 55H125V60H120V55ZM125 55H130V60H125V55ZM5 60H10V65H5V60ZM30 60H35V65H30V60ZM40 60H45V65H40V60ZM70 60H75V65H70V60ZM75 60H80V65H75V60ZM95 60H100V65H95V60ZM35 65H40V70H35V65ZM45 65H50V70H45V65ZM65 65H70V70H65V65ZM70 65H75V70H70V65ZM80 65H85V70H80V65ZM85 65H90V70H85V65ZM90 65H95V70H90V65ZM95 65H100V70H95V65ZM110 65H115V70H110V65ZM120 65H125V70H120V65ZM125 65H130V70H125V65ZM20 70H25V75H20V70ZM40 70H45V75H40V70ZM50 70H55V75H50V70ZM55 70H60V75H55V70ZM60 70H65V75H60V70ZM65 70H70V75H65V70ZM70 70H75V75H70V70ZM90 70H95V75H90V70ZM95 70H100V75H95V70ZM100 70H105V75H100V70ZM110 70H115V75H110V70ZM115 70H120V75H115V70ZM125 70H130V75H125V70ZM5 75H10V80H5V75ZM15 75H20V80H15V75ZM20 75H25V80H20V75ZM30 75H35V80H30V75ZM35 75H40V80H35V75ZM40 75H45V80H40V75ZM65 75H70V80H65V75ZM70 75H75V80H70V75ZM75 75H80V80H75V75ZM85 75H90V80H85V75ZM95 75H100V80H95V75ZM100 75H105V80H100V75ZM105 75H110V80H105V75ZM115 75H120V80H115V75ZM125 75H130V80H125V75ZM10 80H15V85H10V80ZM30 80H35V85H30V80ZM50 80H55V85H50V80ZM65 80H70V85H65V80ZM70 80H75V85H70V80ZM85 80H90V85H85V80ZM105 80H110V85H105V80ZM120 80H125V85H120V80ZM5 85H10V90H5V85ZM10 85H15V90H10V85ZM20 85H25V90H20V85ZM30 85H35V90H30V85ZM35 85H40V90H35V85ZM60 85H65V90H60V85ZM65 85H70V90H65V85ZM80 85H85V90H80V85ZM85 85H90V90H85V85ZM90 85H95V90H90V85ZM95 85H100V90H95V85ZM100 85H105V90H100V85ZM105 85H110V90H105V85ZM110 85H115V90H110V85ZM115 85H120V90H115V85ZM45 90H50V95H45V90ZM70 90H75V95H70V90ZM80 90H85V95H80V90ZM85 90H90V95H85V90ZM105 90H110V95H105V90ZM110 90H115V95H110V90ZM125 90H130V95H125V90ZM5 95H10V100H5V95ZM10 95H15V100H10V95ZM15 95H20V100H15V95ZM20 95H25V100H20V95ZM25 95H30V100H25V95ZM30 95H35V100H30V95ZM35 95H40V100H35V95ZM45 95H50V100H45V95ZM50 95H55V100H50V95ZM55 95H60V100H55V95ZM65 95H70V100H65V95ZM80 95H85V100H80V95ZM85 95H90V100H85V95ZM95 95H100V100H95V95ZM105 95H110V100H105V95ZM110 95H115V100H110V95ZM120 95H125V100H120V95ZM125 95H130V100H125V95ZM5 100H10V105H5V100ZM35 100H40V105H35V100ZM50 100H55V105H50V100ZM65 100H70V105H65V100ZM85 100H90V105H85V100ZM105 100H110V105H105V100ZM110 100H115V105H110V100ZM115 100H120V105H115V100ZM5 105H10V110H5V105ZM15 105H20V110H15V105ZM20 105H25V110H20V105ZM25 105H30V110H25V105ZM35 105H40V110H35V105ZM50 105H55V110H50V105ZM55 105H60V110H55V105ZM60 105H65V110H60V105ZM70 105H75V110H70V105ZM75 105H80V110H75V105ZM85 105H90V110H85V105ZM90 105H95V110H90V105ZM95 105H100V110H95V105ZM100 105H105V110H100V105ZM105 105H110V110H105V105ZM110 105H115V110H110V105ZM120 105H125V110H120V105ZM5 110H10V115H5V110ZM15 110H20V115H15V110ZM20 110H25V115H20V110ZM25 110H30V115H25V110ZM35 110H40V115H35V110ZM45 110H50V115H45V110ZM65 110H70V115H65V110ZM70 110H75V115H70V110ZM75 110H80V115H75V110ZM100 110H105V115H100V110ZM105 110H110V115H105V110ZM110 110H115V115H110V110ZM115 110H120V115H115V110ZM5 115H10V120H5V115ZM15 115H20V120H15V115ZM20 115H25V120H20V115ZM25 115H30V120H25V115ZM35 115H40V120H35V115ZM50 115H55V120H50V115ZM65 115H70V120H65V115ZM70 115H75V120H70V115ZM85 115H90V120H85V115ZM100 115H105V120H100V115ZM105 115H110V120H105V115ZM115 115H120V120H115V115ZM125 115H130V120H125V115ZM5 120H10V125H5V120ZM35 120H40V125H35V120ZM45 120H50V125H45V120ZM55 120H60V125H55V120ZM65 120H70V125H65V120ZM70 120H75V125H70V120ZM75 120H80V125H75V120ZM80 120H85V125H80V120ZM85 120H90V125H85V120ZM90 120H95V125H90V120ZM95 120H100V125H95V120ZM110 120H115V125H110V120ZM5 125H10V130H5V125ZM10 125H15V130H10V125ZM15 125H20V130H15V125ZM20 125H25V130H20V125ZM25 125H30V130H25V125ZM30 125H35V130H30V125ZM35 125H40V130H35V125ZM45 125H50V130H45V125ZM50 125H55V130H50V125ZM70 125H75V130H70V125ZM80 125H85V130H80V125ZM85 125H90V130H85V125ZM95 125H100V130H95V125ZM100 125H105V130H100V125ZM120 125H125V130H120V125ZM125 125H130V130H125V125Z" fill="black"/>
</g>
<defs>
<clipPath id="clip0_16129_25738">
<rect width="135" height="135" rx="8" fill="white"/>
</clipPath>
</defs>
</svg>
